<svg width="68" height="68" viewBox="0 0 68 68" fill="none" xmlns="http://www.w3.org/2000/svg">
<path d="M34 11.3334C21.4815 11.3334 11.3333 21.4816 11.3333 34.0001C11.3333 46.5185 21.4815 56.6668 34 56.6668C46.5184 56.6668 56.6666 46.5185 56.6666 34.0001C56.6666 21.4816 46.5184 11.3334 34 11.3334ZM5.66663 34.0001C5.66663 18.352 18.3519 5.66675 34 5.66675C49.648 5.66675 62.3333 18.352 62.3333 34.0001C62.3333 49.6482 49.648 62.3334 34 62.3334C18.3519 62.3334 5.66663 49.6482 5.66663 34.0001ZM47.2157 24.7991C48.3852 25.8387 48.4906 27.6296 47.451 28.7991L32.3398 45.7991C31.8022 46.404 31.0315 46.7501 30.2222 46.7501C29.4129 46.7501 28.6422 46.404 28.1045 45.7991L20.549 37.2991C19.5094 36.1296 19.6147 34.3387 20.7843 33.2991C21.9538 32.2595 23.7447 32.3648 24.7843 33.5344L30.2222 39.652L43.2156 25.0344C44.2552 23.8648 46.0461 23.7595 47.2157 24.7991Z" fill="#14BD62"/>
</svg>
