<svg width="222" height="60" viewBox="0 0 222 60" fill="none" xmlns="http://www.w3.org/2000/svg">
<mask id="mask0_2_52" style="mask-type:alpha" maskUnits="userSpaceOnUse" x="4" y="5" width="41" height="40">
<path fill-rule="evenodd" clip-rule="evenodd" d="M19.0654 7.30339C19.0654 6.37939 18.1845 5.70869 17.3197 6.03411C9.74456 8.88459 4.35516 16.1975 4.35516 24.7692C4.35516 35.821 13.3144 44.7803 24.3662 44.7803C35.418 44.7803 44.3772 35.821 44.3772 24.7692C44.3772 16.199 38.9897 8.8871 31.4166 6.03558C30.5518 5.70994 29.6706 6.38065 29.6706 7.30478C29.6706 7.91265 30.0653 8.44583 30.6318 8.66639C37.0746 11.1751 41.6404 17.439 41.6404 24.7692C41.6404 34.3095 33.9065 42.0435 24.3662 42.0435C14.8259 42.0435 7.09197 34.3095 7.09197 24.7692C7.09197 17.4377 11.6594 11.1729 18.104 8.66509C18.6705 8.44461 19.0654 7.91136 19.0654 7.30339Z" fill="black"/>
</mask>
<g mask="url(#mask0_2_52)">
<path d="M22.8284 -9.68556L53.8807 11.3536L22.8284 24.8666L35.6236 26.151L22.8284 -9.68556Z" fill="#E12A2A"/>
<path d="M58.8413 6.39301L53.9597 43.1688L22.4864 17.3782L30.4469 22.8138L58.8413 6.39301Z" fill="#FF7E07"/>
<path d="M58.6703 35.9848L33.2627 61.1293L27.618 17.3403L21.4602 24.0113L58.6703 35.9848Z" fill="#FFC907"/>
<path d="M36.7757 52.779L7.40449 52.779L32.7697 21.7065L22.3397 19.54L36.7757 52.779Z" fill="#14BD62"/>
<path d="M12.8288 53.261L-5.13149 30.3403L32.6375 30.6824L26.0791 17.0137L12.8288 53.261Z" fill="#012ECE"/>
<path d="M-6.50006 35.1297L-2.2238 -0.619882L23.8273 37.1788L26.2495 24.8666L-6.50006 35.1297Z" fill="#4B0082"/>
<path d="M-7.35521 10.4984L19.9423 -1.9267L19.9423 34.4454L30.3548 26.235L-7.35521 10.4984Z" fill="#9C2DC4"/>
</g>
<path opacity="0.86" fill-rule="evenodd" clip-rule="evenodd" d="M28.5776 5.97424C28.5656 5.4231 28.1488 4.96361 27.5997 4.91467C26.2137 4.79113 24.7886 4.74188 23.3354 4.77336C22.5508 4.79036 21.7755 4.8305 21.0111 4.89271C20.4394 4.93923 20.0112 5.42857 20.0236 6.00197C20.0377 6.65195 20.6071 7.14795 21.2551 7.09639C21.9541 7.04078 22.6639 7.00463 23.3834 6.98905C24.7346 6.95978 26.0553 7.00445 27.3361 7.11614C28.0064 7.17458 28.5921 6.64686 28.5776 5.97424Z" fill="#FF7E07"/>
<path fill-rule="evenodd" clip-rule="evenodd" d="M0.809326 34.4454C3.97336 42.8332 11.5701 49.2254 21.0848 50.3994C30.1738 51.5208 38.7225 47.5979 43.9218 40.8229L42.4204 39.5643L41.5289 38.8827C36.9771 44.8622 29.458 48.3302 21.4619 47.3436C13.61 46.3749 7.24838 41.3513 4.21697 34.6309L0.809326 34.4454Z" fill="#FF7E07"/>
<path opacity="0.86" d="M22.5794 27.0891L24.9844 25.8004L44.0009 40.7224L42.2496 42.8266L22.5794 27.0891Z" fill="#14BD62"/>
<path opacity="0.82" fill-rule="evenodd" clip-rule="evenodd" d="M22.4869 11.7027C22.8705 11.666 23.2589 11.6472 23.6511 11.6472C30.4963 11.6472 36.171 17.3696 36.171 24.5854C36.171 30.2962 32.6167 35.0715 27.7409 36.8151V39.6909C34.1809 37.8543 38.9078 31.787 38.9078 24.5854C38.9078 15.9283 32.0771 8.91037 23.6511 8.91037C23.2594 8.91037 22.8711 8.92554 22.4869 8.95533V11.7027Z" fill="#9C2DC4"/>
<rect opacity="0.84" x="22.4869" y="8.9101" width="2.73681" height="18.6422" fill="#012ECE"/>
<g filter="url(#filter0_d_2_52)">
<path d="M13.215 32.0231C13.1389 32.0551 13.0509 32.0339 12.9977 31.9707C12.919 31.8772 12.9488 31.7347 13.0583 31.6805L27.5663 24.5023L28.1399 25.7447L13.215 32.0231Z" fill="#FF7E07"/>
<circle cx="24.1306" cy="26.9689" r="1.7105" transform="rotate(-158.48 24.1306 26.9689)" fill="#FF7E07"/>
</g>
<path opacity="0.9" d="M55.0856 19.4446V26.0027H58.4221V37.5081C58.4221 39.0038 58.5372 40.3844 58.8823 41.5925C59.17 42.8581 59.6877 43.8935 60.4356 44.7565C61.1259 45.6194 62.1038 46.2522 63.2544 46.7124C64.4049 47.1726 65.9006 47.4027 67.6264 47.4027C68.4318 47.4027 69.2947 47.3452 70.3302 47.2301C71.3081 47.1151 72.2286 46.8849 73.034 46.6548V40.3269C72.5162 40.4995 71.9409 40.6145 71.3657 40.672C70.7904 40.7871 70.2151 40.7871 69.6974 40.7871C68.4318 40.7871 67.5689 40.557 67.0512 39.9817C66.4759 39.4064 66.2458 38.3134 66.2458 36.7027V26.0027H72.7463V19.4446H66.2458V10.643H58.4221V19.4446H55.0856ZM96.1454 26.1177V18.8693C95.4551 18.7543 94.6497 18.6392 93.6142 18.6392C91.7733 18.6392 90.1626 19.157 88.782 20.1925C87.4013 21.2279 86.3083 22.3785 85.5604 23.7016H85.3879V19.4446H77.7943V47H85.5604V33.5962C85.5604 31.1226 86.1357 29.2242 87.2862 27.8435C88.4368 26.4629 90.1626 25.7726 92.4637 25.7726C93.2115 25.7726 93.9018 25.8301 94.4771 25.8876C95.0524 26.0027 95.6277 26.0602 96.1454 26.1177ZM109.681 60.5188L124.753 19.4446H117.102L113.248 31.4102C112.845 32.6758 112.5 33.7688 112.27 34.7468C111.982 35.7247 111.695 36.8753 111.465 38.1984H111.235C111.004 37.1054 110.717 35.9548 110.372 34.7468C110.026 33.5387 109.681 32.4457 109.394 31.4102L105.424 19.4446H97.3705L107.38 46.7699L102.318 60.5188H109.681ZM127.906 19.4446V47H135.672V32.2156C135.672 30.0296 136.132 28.3613 137.11 27.2107C138.03 26.0602 139.354 25.4274 140.964 25.4274C142.402 25.4274 143.553 26.0027 144.358 27.1532C145.164 28.3037 145.624 29.6844 145.624 31.4102V47H153.39V32.2156C153.39 31.065 153.505 30.0296 153.85 29.1667C154.138 28.3613 154.541 27.671 155.001 27.0957C155.461 26.5204 156.036 26.1177 156.669 25.8301C157.302 25.6 157.992 25.4274 158.683 25.4274C159.488 25.4274 160.178 25.6 160.754 25.9451C161.329 26.2903 161.847 26.693 162.249 27.2683C162.594 27.8435 162.882 28.4763 163.055 29.1667C163.227 29.857 163.342 30.6048 163.342 31.4102V47H171.108V31.1801C171.108 27.0382 170.13 23.9317 168.29 21.8032C166.391 19.6747 163.86 18.5817 160.696 18.5817C159.661 18.5817 158.683 18.7543 157.762 19.0419C156.842 19.3295 155.979 19.6747 155.173 20.1349C154.368 20.5951 153.735 21.1704 153.16 21.7457C152.585 22.321 152.124 22.9537 151.779 23.529C151.204 22.2634 150.226 21.1704 148.845 20.1349C147.465 19.0994 145.739 18.5817 143.668 18.5817C141.885 18.5817 140.331 19.0419 139.008 19.8473C137.628 20.6527 136.535 21.6882 135.672 22.8962H135.557V19.4446H127.906ZM181.47 6.04083C182.505 6.04083 183.215 6.25176 183.598 6.67363C184.02 7.05714 184.231 7.76664 184.231 8.80212V12.1962C184.231 14.3055 183.982 16.108 183.483 17.6037C183.023 19.0994 182.371 20.5184 181.527 21.8607L178.363 20.8828C178.67 19.7322 178.862 18.6201 178.939 17.5462C179.054 16.4724 179.111 15.3218 179.111 14.0946C177.616 14.0946 176.868 13.2892 176.868 11.6785L176.925 8.80212C176.964 7.76664 177.194 7.05714 177.616 6.67363C178.038 6.25176 178.747 6.04083 179.744 6.04083H181.47ZM217.759 47V5.58062H210.166V22.6086H209.935C209.015 21.458 207.922 20.4801 206.656 19.6747C205.333 18.9269 203.665 18.5242 201.594 18.5242C199.868 18.5242 198.2 18.9269 196.589 19.6172C194.978 20.3075 193.598 21.343 192.447 22.6086C191.239 23.8742 190.261 25.4274 189.571 27.2107C188.881 29.0516 188.535 31.0075 188.535 33.1935C188.535 35.8398 188.938 38.0833 189.743 39.9242C190.549 41.765 191.527 43.3183 192.792 44.5263C194 45.7344 195.324 46.5973 196.819 47.1726C198.257 47.7478 199.638 47.978 201.019 47.978C203.147 47.978 204.988 47.5753 206.484 46.7699C207.98 45.9645 209.13 45.0441 210.05 44.0086H210.281V47H217.759ZM196.417 33.2511C196.417 32.2731 196.532 31.2952 196.819 30.3172C197.107 29.3968 197.567 28.5339 198.142 27.7285C198.718 26.9806 199.466 26.3478 200.386 25.8876C201.306 25.4274 202.342 25.1398 203.55 25.1398C204.47 25.1398 205.391 25.3699 206.254 25.7726C207.059 26.1753 207.807 26.7505 208.44 27.4408C209.015 28.1312 209.533 28.9941 209.878 30.0296C210.223 31.065 210.396 32.1581 210.396 33.3086C210.396 34.4591 210.166 35.5521 209.82 36.5301C209.418 37.5081 208.9 38.371 208.267 39.0613C207.634 39.7516 206.887 40.3269 206.081 40.672C205.276 41.0747 204.413 41.2473 203.492 41.2473C202.284 41.2473 201.249 41.0172 200.386 40.557C199.466 40.0968 198.718 39.5215 198.142 38.7737C197.567 38.0258 197.107 37.1629 196.819 36.1849C196.532 35.2645 196.417 34.2865 196.417 33.2511Z" fill="black"/>
<defs>
<filter id="filter0_d_2_52" x="11.9271" y="24.5023" width="17.2391" height="9.93023" filterUnits="userSpaceOnUse" color-interpolation-filters="sRGB">
<feFlood flood-opacity="0" result="BackgroundImageFix"/>
<feColorMatrix in="SourceAlpha" type="matrix" values="0 0 0 0 0 0 0 0 0 0 0 0 0 0 0 0 0 0 127 0" result="hardAlpha"/>
<feOffset dy="1.3684"/>
<feGaussianBlur stdDeviation="0.513151"/>
<feComposite in2="hardAlpha" operator="out"/>
<feColorMatrix type="matrix" values="0 0 0 0 0 0 0 0 0 0 0 0 0 0 0 0 0 0 0.25 0"/>
<feBlend mode="normal" in2="BackgroundImageFix" result="effect1_dropShadow_2_52"/>
<feBlend mode="normal" in="SourceGraphic" in2="effect1_dropShadow_2_52" result="shape"/>
</filter>
</defs>
</svg>
