<svg width="152" height="133" viewBox="0 0 152 133" fill="none" xmlns="http://www.w3.org/2000/svg">
<path d="M127.161 27.5884C131.511 28.0114 140.61 26.6096 142.206 17.6192C143.801 8.62869 148.067 6.13939 150 6.01855" stroke="#F3603F" stroke-width="3" stroke-linecap="round"/>
<circle cx="88.5296" cy="64.2603" r="43.4939" fill="#05C652"/>
<g filter="url(#filter0_d_134_1241)">
<circle cx="88.5304" cy="64.2606" r="37.0296" stroke="white" stroke-opacity="0.7" stroke-width="2"/>
</g>
<path d="M107.858 54.7453C107.858 55.9295 107.393 57.073 106.548 57.8898L86.9031 76.9201C86.0159 77.7369 84.833 78.2269 83.6078 78.2269C82.3826 78.2269 81.1997 77.7369 80.3548 76.9201L70.5111 67.4049C69.6661 66.5882 69.2014 65.4447 69.2014 64.2604C69.2014 63.0761 69.7084 61.9735 70.5533 61.1159C71.4405 60.2992 72.5812 59.85 73.8064 59.8091C75.0316 59.8091 76.1723 60.2583 77.0595 61.0751L83.6078 67.4049L99.9999 51.5599C100.887 50.7432 102.028 50.2939 103.253 50.2939C104.478 50.3348 105.619 50.784 106.506 51.6416C107.351 52.4583 107.858 53.561 107.858 54.7453Z" fill="white"/>
<path d="M121.095 107.754C125.155 108.927 133.005 113.384 131.922 121.829" stroke="#F7B23B" stroke-width="3" stroke-linecap="round" stroke-linejoin="round"/>
<path d="M2 95.8363C8.23084 98.183 21.6636 99.8661 25.5478 87.8252M25.5478 87.8252C26.1143 84.5075 25.5479 77.9449 18.7506 78.2362C17.4558 81.4325 17.0026 87.8252 25.5478 87.8252ZM25.5478 87.8252C28.38 88.3512 34.967 87.8495 38.6569 81.6348" stroke="#6E89FA" stroke-width="3" stroke-linecap="round" stroke-linejoin="round"/>
<circle cx="100.878" cy="128.006" r="4.16899" fill="#637BFE"/>
<circle cx="140.29" cy="61.9878" r="3.66899" stroke="#C05EFD"/>
<circle cx="74.1118" cy="4.56539" r="4.56539" fill="#53B175"/>
<circle cx="87.0748" cy="12.2711" r="2.41103" fill="#F3603F"/>
<circle cx="33.934" cy="47.6791" r="3.72529" stroke="#F7B23B"/>
<circle cx="43.6397" cy="114.304" r="4.14604" stroke="#53B175"/>
<circle r="2.21959" transform="matrix(-1 0 0 1 87.9152 123.225)" fill="#53B175"/>
<defs>
<filter id="filter0_d_134_1241" x="46.5007" y="25.231" width="84.0593" height="84.0593" filterUnits="userSpaceOnUse" color-interpolation-filters="sRGB">
<feFlood flood-opacity="0" result="BackgroundImageFix"/>
<feColorMatrix in="SourceAlpha" type="matrix" values="0 0 0 0 0 0 0 0 0 0 0 0 0 0 0 0 0 0 127 0" result="hardAlpha"/>
<feOffset dy="3"/>
<feGaussianBlur stdDeviation="2"/>
<feColorMatrix type="matrix" values="0 0 0 0 0 0 0 0 0 0 0 0 0 0 0 0 0 0 0.12 0"/>
<feBlend mode="normal" in2="BackgroundImageFix" result="effect1_dropShadow_134_1241"/>
<feBlend mode="normal" in="SourceGraphic" in2="effect1_dropShadow_134_1241" result="shape"/>
</filter>
</defs>
</svg>
